<!DOCTYPE svg PUBLIC "-//W3C//DTD SVG 1.1//EN" "http://www.w3.org/Graphics/SVG/1.1/DTD/svg11.dtd">
<!-- Uploaded to: SVG Repo, www.svgrepo.com, Transformed by: SVG Repo Mixer Tools -->
<svg version="1.1" id="_x32_" xmlns="http://www.w3.org/2000/svg" xmlns:xlink="http://www.w3.org/1999/xlink" viewBox="0 0 512 512" xml:space="preserve" width="800px" height="800px" fill="#fff" transform="rotate(0)" stroke="#fff">
<g id="SVGRepo_bgCarrier" stroke-width="0"/>
<g id="SVGRepo_tracerCarrier" stroke-linecap="round" stroke-linejoin="round"/>
<g id="SVGRepo_iconCarrier"> <style type="text/css"> .st0{fill:#fff;} </style> <g> <rect x="135.781" y="470.955" class="st0" width="314.246" height="41.045"/> <path class="st0" d="M360.249,318.325H216.587l-61.568,35.917v105.171h277.064v-110.31l-30.788-30.778 c30.788-123.136-79.527-138.53-138.701-192.741c-30.944-28.346-60.196-68.992-80.456-99.547 c-4.991-14.285-12.368-23.462-21.914-25.573C130.487-6.115,90.989,58.07,72.014,143.839 c-18.985,85.768-10.256,160.62,19.49,167.207c10.296,2.277,21.768-3.941,33.154-16.601c30.623-17.487,72.32-37.202,111.331-48.636 C292.187,229.345,391.039,225.968,360.249,318.325z M292.264,336.278c23.384,0,42.334,4.019,42.334,8.982 c0,4.954-18.95,8.982-42.334,8.982c-23.374,0-42.33-4.028-42.33-8.982C249.934,340.297,268.891,336.278,292.264,336.278z"/> </g> </g>
</svg>