<svg width="120" height="60" viewBox="0 0 120 60" fill="none" xmlns="http://www.w3.org/2000/svg">
<g clip-path="url(#clip0_34_8)">
<path d="M10.2412 55.7923C10.1677 55.709 10.1429 55.6049 10.171 55.4995C10.3242 54.9247 12.3935 54.1665 16.7501 52.6909C19.5549 51.7408 22.455 50.7586 23.4657 50.0832C23.8588 49.8205 25.1345 48.2666 26.1593 47.0181C26.9799 46.0185 27.541 45.339 27.8366 45.0447C27.7417 45.0221 27.6182 44.9971 27.497 44.9725C26.5354 44.7777 24.2834 44.3216 21.2648 42.4974C17.5279 40.2388 13.8139 36.6427 10.226 31.8088C2.7386 21.7212 3.52928 16.4281 3.86703 14.1679C3.94006 13.6791 3.99297 13.3259 3.9319 13.1339C3.71767 12.4584 3.68506 12.108 3.8195 11.9244C3.87987 11.842 3.97284 11.7968 4.08126 11.7968C4.25282 11.7968 4.44365 11.9055 4.64557 12.0209C4.73595 12.0724 4.86327 12.1451 4.94099 12.172C4.94047 12.084 4.90543 11.8566 4.69119 11.2956C4.16297 9.91164 4.20703 9.66757 4.29741 9.53625C4.34251 9.47085 4.41416 9.43338 4.49395 9.43338C4.70923 9.43338 4.98713 9.72152 5.52038 10.3981C4.60792 8.01682 4.15377 6.6568 4.3609 6.29442C4.40721 6.2134 4.48337 6.16691 4.56976 6.16691C4.83344 6.16691 5.09573 6.58255 5.84339 8.23175C5.83055 8.17485 5.81771 8.11743 5.80453 8.05966C4.91237 4.09948 4.84749 3.37888 5.10578 3.22397C5.14083 3.20281 5.1809 3.1917 5.22132 3.1917C5.50217 3.1917 5.70912 3.65314 6.38566 5.78996C6.40578 5.85414 6.4266 5.91989 6.44776 5.98633C6.43562 5.91104 6.42313 5.83524 6.41081 5.75978C6.17541 4.31788 5.81945 2.1389 5.86108 0.720427C5.87305 0.311902 5.90133 0 6.14159 0C6.40752 0 6.52496 0.278075 7.2747 3.47047C7.52693 4.54443 7.78766 5.655 8.01612 6.44273C8.66213 8.66872 10.3052 12.6993 11.5376 14.7616C14.1223 19.0871 14.8027 19.9308 23.9099 27.5083C28.2337 31.1055 33.6696 34.9575 34.3762 35.273C34.7392 34.8825 36.4401 31.8423 37.277 29.0183C38.0024 26.5701 39.8587 23.7661 40.9676 22.0907C41.3388 21.5301 41.632 21.0872 41.7166 20.9009C41.9435 20.4016 42.4367 20.0993 42.8721 19.8327C43.1334 19.6725 43.3802 19.5215 43.5025 19.3629C43.7325 19.0645 43.8883 18.546 44.0533 17.9968C44.3173 17.1177 44.6165 16.1211 45.338 15.623C45.5509 15.4761 45.7342 15.4048 45.899 15.4048C46.1368 15.4048 46.2843 15.5474 46.4026 15.6619C46.5131 15.7686 46.5806 15.8291 46.6855 15.8291C46.7506 15.8291 46.8309 15.8055 46.9237 15.759C47.3263 15.5576 47.7954 14.1584 48.1378 13.1367C48.5512 11.9033 48.7306 11.428 48.9767 11.3312C49.0199 11.3142 49.0644 11.3057 49.1086 11.3057C49.4498 11.3057 49.6297 11.7756 49.8037 12.2303C49.85 12.351 49.9133 12.5163 49.9645 12.6161C50.1055 12.3919 50.3519 11.7964 50.5392 11.3438C51.0704 10.0603 51.3141 9.53226 51.5894 9.47953L51.6314 9.47554C51.763 9.47554 52.0597 9.47536 52.5327 12.0965C52.6184 11.8618 52.721 11.5707 52.8217 11.2842C53.7861 8.54556 54.0787 7.91585 54.3877 7.91585L54.4218 7.91846C54.7521 7.9698 54.8385 8.55596 54.9835 10.6937C55.0283 11.3534 55.0862 12.2075 55.166 12.6074C55.1697 12.5975 55.1732 12.5873 55.177 12.5763C55.391 11.9583 55.5591 11.7173 55.7768 11.7173C55.999 11.7173 56.3347 11.7173 56.3347 15.1623C56.3347 17.7866 55.1143 25.0382 53.7234 28.3543C52.48 31.3196 52.2222 31.5762 51.7082 32.0874L51.6456 32.1498C51.5275 32.268 51.4272 32.342 51.3509 32.3911C51.4404 32.4806 51.5745 32.6201 51.7599 32.8482C52.3093 33.5244 52.5062 33.8025 52.3922 34.0417C52.3029 34.2296 52.0647 34.2554 51.8205 34.2554C51.6621 34.2554 51.461 34.2433 51.1266 34.2136L51.0936 34.2107C50.2509 34.1352 49.7206 34.1071 48.4331 35.6448C47.3638 36.9219 46.9518 39.7517 46.621 42.0256C46.5533 42.4901 46.4881 42.9377 46.4208 43.354C46.0043 45.923 45.6499 46.9796 41.5178 50.2851C38.3757 52.7987 33.3509 53.7899 30.026 54.4456C29.3752 54.574 28.8119 54.685 28.3477 54.7915C27.1082 55.3553 25.6469 56.1642 24.0997 57.0203C23.6723 57.2569 23.2414 57.4954 22.811 57.7308C19.8911 59.3285 17.062 59.9084 15.8728 59.9084C15.639 59.9084 15.4796 59.8855 15.3855 59.8385C15.3708 59.8312 15.3241 59.8139 15.21 59.8139C15.0166 59.8139 14.7468 59.8616 14.4859 59.9077C14.2167 59.9552 13.9624 60.0002 13.766 60.0002C13.3641 60.0002 13.3207 59.7787 13.3207 59.6832C13.3207 59.6723 13.3195 59.6661 13.32 59.665C13.2813 59.6347 13.1025 59.6246 12.9713 59.6171C12.6664 59.6 12.249 59.5764 11.7921 59.3654C11.3343 59.1542 11.2904 58.9498 11.2807 58.7047C11.2736 58.5224 11.2652 58.3158 10.6215 57.9312C10.3445 57.7657 10.1951 57.6035 10.1516 57.4205C10.098 57.1953 10.2154 57.0099 10.329 56.8307C10.5152 56.5375 10.6756 56.2844 10.2412 55.7923Z" fill="white"/>
</g>
<g clip-path="url(#clip1_34_8)">
<path d="M109.759 55.7923C109.832 55.709 109.857 55.6049 109.829 55.4995C109.676 54.9247 107.607 54.1665 103.25 52.6909C100.445 51.7408 97.545 50.7586 96.5343 50.0832C96.1412 49.8205 94.8655 48.2666 93.8407 47.0181C93.0201 46.0185 92.459 45.339 92.1634 45.0447C92.2583 45.0221 92.3818 44.9971 92.503 44.9725C93.4646 44.7777 95.7166 44.3216 98.7352 42.4974C102.472 40.2388 106.186 36.6427 109.774 31.8088C117.261 21.7212 116.471 16.4281 116.133 14.1679C116.06 13.6791 116.007 13.3259 116.068 13.1339C116.282 12.4584 116.315 12.108 116.181 11.9244C116.12 11.842 116.027 11.7968 115.919 11.7968C115.747 11.7968 115.556 11.9055 115.354 12.0209C115.264 12.0724 115.137 12.1451 115.059 12.172C115.06 12.084 115.095 11.8566 115.309 11.2956C115.837 9.91164 115.793 9.66757 115.703 9.53625C115.657 9.47085 115.586 9.43338 115.506 9.43338C115.291 9.43338 115.013 9.72152 114.48 10.3981C115.392 8.01682 115.846 6.6568 115.639 6.29442C115.593 6.2134 115.517 6.16691 115.43 6.16691C115.167 6.16691 114.904 6.58255 114.157 8.23175C114.169 8.17485 114.182 8.11743 114.195 8.05966C115.088 4.09948 115.153 3.37888 114.894 3.22397C114.859 3.20281 114.819 3.1917 114.779 3.1917C114.498 3.1917 114.291 3.65314 113.614 5.78996C113.594 5.85414 113.573 5.91989 113.552 5.98633C113.564 5.91104 113.577 5.83524 113.589 5.75978C113.825 4.31788 114.181 2.1389 114.139 0.720427C114.127 0.311902 114.099 0 113.858 0C113.592 0 113.475 0.278075 112.725 3.47047C112.473 4.54443 112.212 5.655 111.984 6.44273C111.338 8.66872 109.695 12.6993 108.462 14.7616C105.878 19.0871 105.197 19.9308 96.0901 27.5083C91.7663 31.1055 86.3304 34.9575 85.6238 35.273C85.2608 34.8825 83.5599 31.8423 82.723 29.0183C81.9976 26.5701 80.1413 23.7661 79.0324 22.0907C78.6612 21.5301 78.368 21.0872 78.2834 20.9009C78.0565 20.4016 77.5633 20.0993 77.1279 19.8327C76.8666 19.6725 76.6198 19.5215 76.4975 19.3629C76.2675 19.0645 76.1117 18.546 75.9467 17.9968C75.6827 17.1177 75.3835 16.1211 74.662 15.623C74.4491 15.4761 74.2658 15.4048 74.101 15.4048C73.8632 15.4048 73.7157 15.5474 73.5974 15.6619C73.4869 15.7686 73.4194 15.8291 73.3145 15.8291C73.2494 15.8291 73.1691 15.8055 73.0763 15.759C72.6737 15.5576 72.2046 14.1584 71.8622 13.1367C71.4488 11.9033 71.2694 11.428 71.0233 11.3312C70.9801 11.3142 70.9356 11.3057 70.8914 11.3057C70.5502 11.3057 70.3703 11.7756 70.1963 12.2303C70.15 12.351 70.0867 12.5163 70.0355 12.6161C69.8945 12.3919 69.6481 11.7964 69.4608 11.3438C68.9296 10.0603 68.6859 9.53226 68.4106 9.47953L68.3686 9.47554C68.237 9.47554 67.9403 9.47536 67.4673 12.0965C67.3816 11.8618 67.279 11.5707 67.1783 11.2842C66.2139 8.54556 65.9213 7.91585 65.6123 7.91585L65.5782 7.91846C65.2479 7.9698 65.1615 8.55596 65.0165 10.6937C64.9717 11.3534 64.9138 12.2075 64.834 12.6074C64.8303 12.5975 64.8268 12.5873 64.823 12.5763C64.609 11.9583 64.4409 11.7173 64.2232 11.7173C64.001 11.7173 63.6653 11.7173 63.6653 15.1623C63.6653 17.7866 64.8857 25.0382 66.2766 28.3543C67.52 31.3196 67.7778 31.5762 68.2918 32.0874L68.3544 32.1498C68.4725 32.268 68.5728 32.342 68.6491 32.3911C68.5596 32.4806 68.4255 32.6201 68.2401 32.8482C67.6907 33.5244 67.4938 33.8025 67.6078 34.0417C67.6971 34.2296 67.9353 34.2554 68.1795 34.2554C68.3379 34.2554 68.539 34.2433 68.8734 34.2136L68.9064 34.2107C69.7491 34.1352 70.2794 34.1071 71.5669 35.6448C72.6362 36.9219 73.0482 39.7517 73.379 42.0256C73.4467 42.4901 73.5119 42.9377 73.5792 43.354C73.9957 45.923 74.3501 46.9796 78.4822 50.2851C81.6243 52.7987 86.6491 53.7899 89.974 54.4456C90.6248 54.574 91.1881 54.685 91.6523 54.7915C92.8918 55.3553 94.3531 56.1642 95.9003 57.0203C96.3277 57.2569 96.7586 57.4954 97.189 57.7308C100.109 59.3285 102.938 59.9084 104.127 59.9084C104.361 59.9084 104.52 59.8855 104.614 59.8385C104.629 59.8312 104.676 59.8139 104.79 59.8139C104.983 59.8139 105.253 59.8616 105.514 59.9077C105.783 59.9552 106.038 60.0002 106.234 60.0002C106.636 60.0002 106.679 59.7787 106.679 59.6832C106.679 59.6723 106.681 59.6661 106.68 59.665C106.719 59.6347 106.898 59.6246 107.029 59.6171C107.334 59.6 107.751 59.5764 108.208 59.3654C108.666 59.1542 108.71 58.9498 108.719 58.7047C108.726 58.5224 108.735 58.3158 109.379 57.9312C109.656 57.7657 109.805 57.6035 109.848 57.4205C109.902 57.1953 109.785 57.0099 109.671 56.8307C109.485 56.5375 109.324 56.2844 109.759 55.7923Z" fill="white"/>
</g>
<defs>
<clipPath id="clip0_34_8">
<rect width="60" height="60" fill="white" transform="matrix(-1 0 0 1 60 0)"/>
</clipPath>
<clipPath id="clip1_34_8">
<rect width="60" height="60" fill="white" transform="translate(60)"/>
</clipPath>
</defs>
</svg>
