<svg width="577" height="197" viewBox="0 0 577 197" fill="none" xmlns="http://www.w3.org/2000/svg">
<path fill-rule="evenodd" clip-rule="evenodd" d="M0 68.5638L24 55.3702C48 41.2343 96 13.9047 144 6.36553C192 -2.11605 240 9.19273 289 22.3863C337 36.5223 385 52.5431 433 60.0822C481 68.5638 510.5 64.6178 538.5 60.0822L577 48.6063V199H441C417 199 436 199 388 199C340 199 362.5 199 314.5 199C265.5 199 200 199 152 199C104 199 65 199 41 199H0V68.5638Z" fill="#5AA0D6"/>
<path fill-rule="evenodd" clip-rule="evenodd" d="M0 64.9424L24 51.7873C48 37.6927 96 10.4431 144 2.92592C192 -5.53086 240 5.74485 289 18.8999C337 32.9945 385 48.9684 433 56.4856C481 64.9424 522 59.7572 548 54.8966L577 46.319V194.997H441C417 194.997 436 194.997 388 194.997C340 194.997 362.5 194.997 314.5 194.997C265.5 194.997 200 194.997 152 194.997C104 194.997 65 194.997 41 194.997H0V64.9424Z" fill="#5AA0D6" fill-opacity="0.34"/>
</svg>
