<svg width="577" height="121" viewBox="0 0 577 121" fill="none" xmlns="http://www.w3.org/2000/svg">
<path fill-rule="evenodd" clip-rule="evenodd" d="M0 39.4876L24 31.4888C48 22.9187 96 6.3498 144 1.77908C192 -3.36299 240 3.4931 289 11.4919C337 20.062 385 29.7748 433 34.3455C481 39.4876 522 36.3348 548 33.3793L577 28.1638V118.566H441C417 118.566 436 118.566 388 118.566C340 118.566 362.5 118.566 314.5 118.566C265.5 118.566 200 118.566 152 118.566C104 118.566 65 118.566 41 118.566H0V39.4876Z" fill="#5AA0D6" fill-opacity="0.34"/>
<path fill-rule="evenodd" clip-rule="evenodd" d="M0 41.6895L24 33.6673C48 25.0721 96 8.45461 144 3.87048C192 -1.28667 240 5.58953 289 13.6118C337 22.207 385 31.9483 433 36.5324C481 41.6895 510.5 39.2902 538.5 36.5324L577 29.5546V121H441C417 121 436 121 388 121C340 121 362.5 121 314.5 121C265.5 121 200 121 152 121C104 121 65 121 41 121H0V41.6895Z" fill="#5AA0D6"/>
</svg>
